<?xml version="1.0" standalone="no"?>
<!DOCTYPE svg PUBLIC "-//W3C//DTD SVG 20010904//EN"
 "http://www.w3.org/TR/2001/REC-SVG-20010904/DTD/svg10.dtd">
<svg version="1.0" xmlns="http://www.w3.org/2000/svg"
 width="1080.000000pt" height="1080.000000pt" viewBox="0 0 1080.000000 1080.000000"
 preserveAspectRatio="xMidYMid meet">
<metadata>
Created by potrace 1.14, written by Peter Selinger 2001-2017
</metadata>
<g transform="translate(0.000000,1080.000000) scale(0.100000,-0.100000)"
fill="#000000" stroke="none">
<path d="M4608 7847 c-27 -5 -48 -13 -48 -19 0 -5 -4 -7 -8 -4 -10 6 -88 -39
-129 -74 -55 -48 -118 -158 -130 -228 -3 -20 -6 -167 -7 -327 l-1 -290 -85 -2
c-47 -2 -294 -5 -550 -7 -256 -2 -474 -6 -485 -8 -11 -3 -38 -13 -60 -23 -22
-10 -43 -17 -47 -17 -5 1 -8 -2 -8 -7 0 -5 -9 -12 -19 -16 -26 -8 -128 -108
-141 -137 -5 -13 -14 -30 -20 -38 -19 -29 -35 -75 -47 -140 -10 -54 -10 -396
1 -426 8 -27 32 -34 124 -34 39 0 73 -3 73 -7 1 -5 2 -368 3 -808 l1 -800 24
-64 c31 -81 106 -161 188 -199 l58 -27 2085 -1 c1242 -1 2097 2 2115 8 16 5
37 11 47 13 27 6 72 32 101 60 15 14 27 22 27 18 0 -23 74 106 85 147 1 3 5
19 10 35 5 17 9 388 9 825 l1 795 65 2 c108 5 127 10 137 41 5 15 8 110 8 212
-2 177 -9 264 -24 285 -4 6 -14 26 -21 45 -50 129 -205 246 -350 264 -19 3
-269 5 -555 5 l-520 1 -1 303 c-1 318 -2 332 -51 433 -36 76 -152 179 -218
194 -5 1 -21 7 -35 13 -32 14 -1533 17 -1602 4z m1335 -418 c20 -2 37 -6 37
-10 0 -4 9 -9 19 -12 11 -2 29 -24 42 -48 20 -41 22 -56 21 -234 0 -104 -1
-198 -1 -207 -1 -16 -43 -17 -663 -15 l-662 2 -1 195 c-1 214 7 259 52 298 15
12 38 25 52 28 14 3 29 6 33 7 14 3 1033 -1 1071 -4z"/>
</g>
</svg>
