<svg xmlns="http://www.w3.org/2000/svg" version="1.1"
viewBox="12 15 75 75">
  <g>
    <rect x="37" y="28" width="4" height="15" rx="5" fill="#ffdf00" />
    <rect x="59" y="28" width="4" height="15" rx="5" fill="#ffdf00" />
    <rect x="38" y="28" width="25" height="4" rx="5" fill="#ffdf00" />

    <rect x="21" y="47" width="58" height="25" rx=" 5" fill="#ffdf00" />

    <rect x="18" y="40" width="64" height="9" rx="5" fill="#107640" />
    <rect x="18" y="47" width="64" height="2" fill="#107640" />
    <rect x="47" y="45" width="6" height="10" fill="#9F3333" />
    <path
      d="m75.254 73.219h-50.523c-2.4375 0-4.418-1.9844-4.418-4.418v-20.195c0-0.42969 0.35156-0.78125 0.78125-0.78125h25.203c0.42969 0 0.78125 0.35156 0.78125 0.78125v5.9375h5.8281v-5.9375c0-0.42969 0.35156-0.78125 0.78125-0.78125h25.203c0.42969 0 0.78125 0.35156 0.78125 0.78125v20.195c0 2.4375-1.9805 4.418-4.418 4.418zm-53.379-23.832v19.414c0 1.5742 1.2812 2.8555 2.8555 2.8555h50.523c1.5742 0 2.8555-1.2812 2.8555-2.8555v-19.414h-23.641v5.9375c0 0.42969-0.35156 0.78125-0.78125 0.78125l-7.3906 0.003906c-0.42969 0-0.78125-0.35156-0.78125-0.78125v-5.9375z" />

    <!-- traits -->
    <path
      d="m27.344 59.289c-0.42969 0-0.78125-0.35156-0.78125-0.78125v-2.2578c0-0.42969 0.35156-0.78125 0.78125-0.78125s0.78125 0.35156 0.78125 0.78125v2.2578c0 0.42969-0.35156 0.78125-0.78125 0.78125z" />
    <path
      d="m40.926 66.969h-11.262c-1.7109 0-3.1016-1.3906-3.1016-3.1016v-1.8008c0-0.42969 0.35156-0.78125 0.78125-0.78125s0.78125 0.35156 0.78125 0.78125v1.8008c0 0.85156 0.69141 1.5391 1.5391 1.5391h11.262c0.42969 0 0.78125 0.35156 0.78125 0.78125 0 0.43359-0.34766 0.78125-0.78125 0.78125z" />

    <!-- couvercle -->
    <path
      d="m81.516 49.387h-27.828c-0.42969 0-0.78125-0.35156-0.78125-0.78125v-2.6797l-5.8281 0.003907v2.6797c0 0.42969-0.35156 0.78125-0.78125 0.78125l-27.812-0.003906c-0.42969 0-0.78125-0.35156-0.78125-0.78125v-4.0781c0-3.1836 2.5898-5.7734 5.7734-5.7734h53.051c3.1836 0 5.7734 2.5898 5.7734 5.7734v4.0781c-0.003906 0.43359-0.35156 0.78125-0.78516 0.78125zm-27.047-1.5625h26.27v-3.2969c0-2.3203-1.8867-4.2109-4.2109-4.2109h-53.055c-2.3203 0-4.2109 1.8906-4.2109 4.2109v3.2969h26.254v-2.6797c0-0.42969 0.35156-0.78125 0.78125-0.78125h7.3906c0.42969 0 0.78125 0.35156 0.78125 0.78125z" />

    <!-- poigné -->
    <path
      d="m63.137 40.312h-26.277c-0.42969 0-0.78125-0.35156-0.78125-0.78125v-7.5703c0-2.8555 2.3242-5.1797 5.1797-5.1797h17.484c2.8555 0 5.1797 2.3242 5.1797 5.1797v7.5703c-0.003906 0.42969-0.35547 0.78125-0.78516 0.78125zm-25.496-1.5625h24.715v-6.7891c0-1.9922-1.6211-3.6172-3.6172-3.6172h-17.484c-1.9922 0-3.6172 1.6211-3.6172 3.6172z" />
    <path
      d="m59.066 40.312h-18.141c-0.42969 0-0.78125-0.35156-0.78125-0.78125v-5.6406c0-1.8594 1.5117-3.3711 3.3711-3.3711h12.965c1.8594 0 3.3711 1.5117 3.3711 3.3711v5.6406c-0.003906 0.42969-0.35156 0.78125-0.78516 0.78125zm-17.359-1.5625h16.578v-4.8594c0-0.99609-0.8125-1.8086-1.8086-1.8086h-12.965c-0.99609 0-1.8086 0.8125-1.8086 1.8086z" />

    <!-- serrure -->
    <path
      d="m53.688 56.109h-7.3906c-0.42969 0-0.78125-0.35156-0.78125-0.78125v-10.18c0-0.42969 0.35156-0.78125 0.78125-0.78125h7.3906c0.42969 0 0.78125 0.35156 0.78125 0.78125v10.18c0 0.42969-0.35156 0.78125-0.78125 0.78125zm-6.6094-1.5625h5.8281v-8.6172h-5.8281z" />
    <path
      d="m49.996 56.117c-0.42969 0-0.78125-0.35156-0.78125-0.78125v-4.0234c0-0.42969 0.35156-0.78125 0.78125-0.78125 0.42969 0 0.78125 0.35156 0.78125 0.78125v4.0234c0 0.42969-0.34766 0.78125-0.78125 0.78125z" />
  </g>
</svg>