<svg
  xmlns="http://www.w3.org/2000/svg" version="1.1"
  viewBox="14 15 74 74">

  <rect x="15" y="20" width="73" height="50" fill="#fff" rx="5"/>
  <rect x="25" y="55" width="53" height="23" fill="#ffdf00" />
  <rect x="22" y="49" width="59" height="6" fill="#107640" />
  <rect x="32" y="49" width="4" height="9" fill="#9F3333" />
  <rect x="67" y="49" width="4" height="9" fill="#9F3333" />
  <path fill="#151c21"
    d="m80 48.176h-9.7383l2.0664-5.6992c0.046875-0.125 0.039063-0.26562-0.019531-0.38672-0.054688-0.12109-0.16016-0.21484-0.28516-0.26172l-0.76953-0.27344 3.6484-10.102 1.0312-2.0586s0-0.015625 0.011718-0.019531c0-0.011719 0.011719-0.015625 0.015626-0.023438 0.003906-0.015624 0.019531-0.023437 0.023437-0.035156v-0.011718c0.011719-0.03125 0.003906-0.054688 0.011719-0.074219v-0.003907c0-0.011718 0.011718-0.019531 0.011718-0.03125l1.0898-5.6484c0.046875-0.23828-0.089844-0.48047-0.32031-0.56641l-3.1094-1.125c-0.23047-0.085938-0.48828 0.015625-0.60938 0.23047l-2.7656 5.0234s-0.011719 0.03125-0.019531 0.046875c-0.011719 0.019531-0.03125 0.039062-0.039063 0.066406v0.003906c-0.003906 0.019532 0 0.039063-0.011719 0.054688 0 0.011719-0.011718 0.019531-0.011718 0.03125l-0.51172 2.1719-3.6797 10.18-0.76172-0.27344c-0.125-0.046875-0.26562-0.039063-0.37891 0.019531-0.12109 0.054688-0.21484 0.16016-0.26172 0.28516l-3.0664 8.4844h-5.6602v-12.414c2.3281-1.2539 3.8164-3.7305 3.8164-6.3867 0-2.9805-1.7891-5.6211-4.5547-6.7305-0.15625-0.066407-0.32812-0.046876-0.46484 0.050781-0.13672 0.09375-0.21875 0.25-0.21875 0.41406v5.7734l-1.9531 2.1953-2.0469-2.2031v-5.7812c0-0.16406-0.078125-0.32031-0.21875-0.41406-0.13672-0.09375-0.30859-0.10938-0.46484-0.050782-2.7812 1.1055-4.5742 3.75-4.5742 6.7383 0 2.6602 1.4883 5.1289 3.8203 6.3867v12.414h-8.0586l-5.3984-10.648 1.3086-0.66406c3.9883-2.0195 7.9062 0.39062 7.9453 0.41406 0.18359 0.11328 0.42578 0.10156 0.58984-0.039063 0.16406-0.14062 0.22656-0.37109 0.14062-0.57422-1.5938-3.8633-3.7344-6.2656-6.3633-7.1445-3.1016-1.0352-5.6914 0.46875-5.7656 0.51562l-9.8633 5.0039-0.48828-0.96484c-0.125-0.24609-0.42578-0.34375-0.67188-0.21875l-3.8164 1.9336c-0.12109 0.058594-0.21094 0.16406-0.25 0.28906-0.039063 0.125-0.03125 0.26562 0.03125 0.37891l4.4414 8.7617c0.089844 0.17578 0.26562 0.27344 0.44531 0.27344 0.074219 0 0.15625-0.015625 0.22656-0.054687l3.8164-1.9336c0.12109-0.058594 0.21094-0.16406 0.25-0.28906 0.039063-0.125 0.03125-0.26563-0.03125-0.37891l-0.48828-0.96484 2.4336-1.2344 3.8242 7.5508h-10.375c-0.93359 0-1.6992 0.76172-1.6992 1.6992v2.9297c0 1.5859 1.2891 2.8711 2.8711 2.8711h0.12891v19.977c0 1.3906 1.1289 2.5234 2.5234 2.5234h49.453c1.3906 0 2.5234-1.1289 2.5234-2.5234v-19.977h0.12891c1.5859 0 2.8711-1.2891 2.8711-2.8711v-2.9297c0-0.93359-0.76172-1.6992-1.6992-1.6992zm-13.68 6.5h-29.746v-5.5h29.746zm-33.996-5.5h3.25v8.3359c0 0.23047-0.18359 0.41406-0.41406 0.41406h-2.4219c-0.23047 0-0.41406-0.18359-0.41406-0.41406zm34.996 0h3.25v8.3359c0 0.23047-0.18359 0.41406-0.41406 0.41406h-2.4219c-0.23047 0-0.41406-0.18359-0.41406-0.41406zm3.7266-21.047 3.7305 1.3516-0.51172 1.0234-3.4805-1.2617zm2.6797-5.1875 2.3047 0.83594-0.92188 4.7656-3.7266-1.3438 2.3398-4.25zm-3.2266 7.2617 3.3555 1.2109-3.5391 9.8008-3.3555-1.2109 3.5469-9.8008zm-5.1094 10.297 0.75391 0.27344 4.2734 1.5469s0.015625 0.003907 0.019531 0.011719l0.76953 0.27344-2.0156 5.5703h-6.5781l2.7734-7.6758zm-15.645-5.4961c-2.1797-1.0508-3.5352-3.2109-3.5352-5.6289 0-2.4219 1.2617-4.4062 3.2617-5.4883v5.1914c0 0.125 0.050782 0.25 0.13672 0.33984l2.5508 2.75c0.09375 0.10547 0.25 0.15625 0.37109 0.16016 0.14062 0 0.27344-0.058594 0.37109-0.16406l2.4492-2.75c0.078126-0.089843 0.125-0.21094 0.125-0.33594v-5.1797c1.9883 1.0898 3.2383 3.1641 3.2383 5.4805s-1.3867 4.5938-3.5312 5.6289c-0.17578 0.085938-0.28125 0.26172-0.28125 0.44922v12.719h-4.8633v-12.719c0-0.19141-0.10937-0.36328-0.28516-0.44922zm-26.281 9.3164-3.9883-7.8633 2.9219-1.4805 0.48828 0.96484 2.8945 5.7031 0.60547 1.1953zm0.53906-8.3906 9.8945-5.0195s2.3242-1.3359 4.9844-0.44141c2.0508 0.69141 3.7891 2.4766 5.1797 5.3203-1.625-0.65625-4.5703-1.3789-7.6367 0.17578l-5.4844 2.7812-1.5 0.76172-2.8789 1.4609-2.5547-5.0391zm6.3359 4.2461 1.3359-0.67578 3-1.5195 5.1719 10.199h-5.4531l-4.0547-8zm-8.1406 12.629v-2.9297c0-0.38672 0.31641-0.69922 0.69922-0.69922h8.4297v5.5h-7.2539c-1.0312 0-1.8711-0.83984-1.8711-1.8711zm55.5 22.844c0 0.83984-0.68359 1.5234-1.5234 1.5234l-49.457 0.003906c-0.83984 0-1.5234-0.68359-1.5234-1.5234v-19.977h6.125v1.8359c0 0.78125 0.63672 1.4141 1.4141 1.4141h2.4219c0.78125 0 1.4141-0.63672 1.4141-1.4141v-1.8359h29.746v1.8359c0 0.78125 0.63672 1.4141 1.4141 1.4141h2.4219c0.78125 0 1.4141-0.63672 1.4141-1.4141v-1.8359h6.125v19.977zm3-22.844c0 1.0312-0.83984 1.8711-1.8711 1.8711h-7.2539v-5.5h8.4297c0.38672 0 0.69922 0.31641 0.69922 0.69922v2.9297z" />
  <text x="30" y="67" font-size="9.0" font-weight="bold"
    font-family="Arbeit Regular, Helvetica, Arial-Unicode, Arial, Sans-serif" fill="#000000">
    CSSBattle
  </text>
  <text x="30" y="75" font-size="8.0" font-weight="bold"
    font-family="Arbeit Regular, Helvetica, Arial-Unicode, Arial, Sans-serif" fill="#000000">
    Toolbox
  </text>
</svg>